<?xml version="1.0" encoding="UTF-8" standalone="no"?>
<!-- Created with Inkscape (http://www.inkscape.org/) -->

<svg
   width="36.0807mm"
   height="36.0807mm"
   viewBox="0 0 36.0807 36.0807"
   version="1.1"
   id="svg103483"
   inkscape:version="1.3.2 (091e20ef0f, 2023-11-25, custom)"
   sodipodi:docname="favicon.svg"
   xmlns:inkscape="http://www.inkscape.org/namespaces/inkscape"
   xmlns:sodipodi="http://sodipodi.sourceforge.net/DTD/sodipodi-0.dtd"
   xmlns="http://www.w3.org/2000/svg"
   xmlns:svg="http://www.w3.org/2000/svg">
  <sodipodi:namedview
     id="namedview103485"
     pagecolor="#969696"
     bordercolor="#666666"
     borderopacity="1.0"
     inkscape:pageshadow="2"
     inkscape:pageopacity="0"
     inkscape:pagecheckerboard="true"
     inkscape:document-units="mm"
     showgrid="false"
     fit-margin-top="0"
     fit-margin-left="0"
     fit-margin-right="0"
     fit-margin-bottom="0"
     inkscape:zoom="4.4152517"
     inkscape:cx="90.368575"
     inkscape:cy="83.460701"
     inkscape:window-width="1894"
     inkscape:window-height="1027"
     inkscape:window-x="10"
     inkscape:window-y="37"
     inkscape:window-maximized="1"
     inkscape:current-layer="layer1"
     inkscape:showpageshadow="0"
     inkscape:deskcolor="#505050" />
  <defs
     id="defs103480" />
  <g
     inkscape:label="Layer 1"
     inkscape:groupmode="layer"
     id="layer1"
     transform="translate(-63.329525,-80.365952)">
    <path
       id="path87553"
       style="color:#000000;fill:#ffffff;fill-opacity:1;stroke-width:0.373983;stroke-miterlimit:6;-inkscape-stroke:none"
       d="m 79.634077,80.368378 c -0.171136,0.01645 -0.334605,0.116913 -0.418564,0.293636 l -0.769883,1.615728 c -0.159504,0.02902 -0.318223,0.0591 -0.476231,0.09276 L 76.64658,81.167473 c -0.28924,-0.263581 -0.755225,-0.123779 -0.850964,0.255652 l -0.441189,1.740634 c -0.148247,0.05885 -0.295673,0.118104 -0.441901,0.181147 l -1.538308,-0.925462 c -0.335127,-0.20209 -0.764648,0.02624 -0.784507,0.417078 l -0.09275,1.799071 c -0.132203,0.0854 -0.263324,0.172391 -0.392985,0.261497 l -1.694634,-0.609914 c -0.368112,-0.132825 -0.744827,0.175254 -0.688055,0.562435 l 0.25932,1.78227 c -0.113161,0.109289 -0.22454,0.219821 -0.334568,0.332349 L 67.86524,86.696892 c -0.386924,-0.05846 -0.696546,0.31648 -0.565353,0.68515 l 0.600433,1.691691 c -0.09091,0.130719 -0.178689,0.263819 -0.265904,0.397358 l -1.793964,0.08546 c -0.390925,0.01814 -0.620627,0.446308 -0.419985,0.7823 l 0.914504,1.53611 c -0.06446,0.148129 -0.124542,0.29873 -0.184785,0.44922 l -1.737717,0.43169 c -0.379855,0.09405 -0.522345,0.559844 -0.260031,0.850227 l 1.197909,1.328669 c -0.03404,0.157506 -0.06469,0.316195 -0.09426,0.475511 l -1.620099,0.763311 c -0.3542,0.166352 -0.403044,0.650187 -0.08912,0.883829 l 1.435314,1.070813 c -0.0037,0.162014 -0.0048,0.323884 -0.0037,0.48502 l -1.43823,1.06278 c -0.31497,0.232263 -0.268745,0.716649 0.0847,0.884569 l 1.616471,0.76988 c 0.02918,0.15948 0.05909,0.31895 0.09275,0.47698 l -1.203032,1.32283 c -0.263585,0.28922 -0.123793,0.75521 0.255656,0.85094 l 1.740633,0.44046 c 0.05882,0.14825 0.118116,0.29641 0.181158,0.44265 l -0.925461,1.53829 c -0.2021,0.33511 0.02618,0.76389 0.417068,0.78377 l 1.799088,0.0934 c 0.08541,0.13216 0.172406,0.2633 0.261489,0.39298 l -0.60993,1.69461 c -0.132797,0.36808 0.174538,0.74484 0.561723,0.68807 l 1.783007,-0.26005 c 0.109277,0.11318 0.219829,0.2245 0.332323,0.33455 l -0.267324,1.78155 c -0.05849,0.38691 0.316465,0.69583 0.685139,0.56462 l 1.691717,-0.59969 c 0.130705,0.0909 0.263809,0.17866 0.397358,0.26588 l 0.08546,1.79395 c 0.01796,0.3909 0.446311,0.62061 0.782298,0.42 l 1.536104,-0.91524 c 0.148134,0.0645 0.298738,0.12523 0.449228,0.18554 l 0.431691,1.7377 c 0.09405,0.37987 0.559817,0.52162 0.850214,0.25931 l 1.328655,-1.19718 c 0.157485,0.034 0.316203,0.064 0.47552,0.0935 l 0.762591,1.62085 c 0.166386,0.35421 0.650882,0.40302 0.884549,0.089 l 1.070828,-1.43605 c 0.162011,0.002 0.32316,0.006 0.484272,0.002 l 1.063535,1.43825 c 0.232244,0.31493 0.71663,0.26871 0.884549,-0.0848 l 0.769883,-1.61646 c 0.159504,-0.029 0.318971,-0.0583 0.476979,-0.092 l 1.322819,1.20303 c 0.28924,0.26356 0.755224,0.12311 0.850964,-0.25638 l 0.440441,-1.74064 c 0.148247,-0.0588 0.296421,-0.1181 0.442648,-0.18115 l 1.538308,0.92547 c 0.335126,0.20209 0.763901,-0.0263 0.783759,-0.41708 l 0.0935,-1.79908 c 0.132204,-0.0854 0.262575,-0.17166 0.392236,-0.26077 l 1.695346,0.60919 c 0.368111,0.13287 0.744863,-0.17452 0.688091,-0.5617 l -0.260029,-1.78227 c 0.113161,-0.1092 0.224502,-0.22054 0.334528,-0.33308 l 1.781548,0.26734 c 0.386924,0.0586 0.695796,-0.31647 0.564604,-0.68516 l -0.599684,-1.69167 c 0.09091,-0.13075 0.17869,-0.26384 0.265903,-0.39736 l 1.793926,-0.0848 c 0.390927,-0.018 0.620666,-0.44704 0.420022,-0.78302 l -0.91525,-1.53611 c 0.06446,-0.14814 0.125291,-0.29873 0.185534,-0.44922 l 1.737716,-0.43169 c 0.379855,-0.094 0.521597,-0.55984 0.259283,-0.85024 l -1.197161,-1.32866 c 0.03404,-0.1575 0.06395,-0.31621 0.0935,-0.4755 l 1.620848,-0.76259 c 0.3542,-0.16636 0.402294,-0.650912 0.08837,-0.884558 l -1.435313,-1.070826 c 0.0037,-0.162002 0.0048,-0.32315 0.0037,-0.484274 l 1.43823,-1.063521 c 0.31497,-0.232263 0.268707,-0.716644 -0.08475,-0.88456 l -1.616471,-0.769878 c -0.02918,-0.159482 -0.05838,-0.318961 -0.09203,-0.476977 l 1.203031,-1.322093 c 0.263585,-0.289236 0.123793,-0.755961 -0.255654,-0.851689 l -1.740598,-0.440456 c -0.05897,-0.148252 -0.118104,-0.296422 -0.181158,-0.442646 l 0.924714,-1.538301 c 0.202101,-0.335104 -0.02543,-0.763896 -0.416319,-0.783762 l -1.799089,-0.0935 c -0.08541,-0.132218 -0.172407,-0.262582 -0.261488,-0.392243 l 0.609893,-1.695348 c 0.132808,-0.367722 -0.175238,-0.744467 -0.562423,-0.687707 l -1.782267,0.260525 c -0.109276,-0.113173 -0.220576,-0.22448 -0.333071,-0.334541 l 0.267324,-1.781537 c 0.05849,-0.386931 -0.315717,-0.695833 -0.68439,-0.564629 l -1.69243,0.59969 C 90.571648,84.843779 90.438545,84.75606 90.304995,84.66884 l -0.08474,-1.793225 C 90.202305,82.485137 89.7732,82.254701 89.437214,82.45531 l -1.536103,0.915235 c -0.148135,-0.06451 -0.29799,-0.125277 -0.448483,-0.185529 l -0.432397,-1.736981 c -0.09405,-0.379847 -0.559106,-0.52234 -0.849505,-0.260036 l -1.328691,1.197189 c -0.157485,-0.03404 -0.316165,-0.064 -0.475483,-0.0935 l -0.763345,-1.620106 c -0.08317,-0.1771 -0.245296,-0.278603 -0.416319,-0.295829 -0.170985,-0.0172 -0.350646,0.04976 -0.467479,0.206716 l -1.070831,1.435312 c -0.162008,-0.003 -0.323905,-0.0049 -0.485019,-0.003 l -1.062788,-1.438232 c -0.11612,-0.157473 -0.295597,-0.224615 -0.466732,-0.208174 z m 1.706301,4.747843 c 0.449867,-1.53e-4 0.903995,0.02184 1.361527,0.06793 1.136838,0.114508 2.225094,0.368354 3.249698,0.742126 -0.166423,0.16993 -0.02729,0.0264 -0.2527,0.257114 -0.787275,0.861372 -1.225734,1.984914 -1.230072,3.151838 1.12e-4,1.748985 0.958297,3.271621 2.376109,4.080227 l -0.787424,6.396448 a 4.6977358,4.6977358 0 0 0 -0.625228,0.121255 L 80.36013,94.370134 a 4.6977358,4.6977358 0 0 0 0.453604,-2.005049 4.6977358,4.6977358 0 0 0 -4.697464,-4.698177 4.6977358,4.6977358 0 0 0 -4.698176,4.698177 4.6977358,4.6977358 0 0 0 1.373943,3.277473 l -0.89184,7.243022 c -0.596879,0.20788 -1.152358,0.5312 -1.626682,0.96491 -1.087358,1.05235 -0.613707,0.59688 -0.70122,0.68443 -1.151084,-2.21591 -1.692653,-4.782335 -1.422898,-7.460706 0.691236,-6.862819 6.442888,-11.955664 13.190981,-11.957998 z m 7.825881,2.295766 a 1.922609,1.922609 0 0 1 1.92254,1.922514 1.922609,1.922609 0 0 1 -1.92254,1.923243 1.922609,1.922609 0 0 1 -1.922503,-1.923243 1.922609,1.922609 0 0 1 1.922503,-1.922514 z M 76.11627,90.442574 a 1.922609,1.922609 0 0 1 1.922502,1.922516 1.922609,1.922609 0 0 1 -1.922502,1.922509 1.922609,1.922609 0 0 1 -1.922503,-1.922509 1.922609,1.922609 0 0 1 1.922503,-1.922516 z m 16.947614,1.631068 c 1.224498,2.261151 1.806082,4.903641 1.528099,7.663753 -0.73731,7.320325 -7.232927,12.627345 -14.553255,11.890055 -1.219899,-0.12283 -2.381643,-0.40919 -3.471059,-0.82904 0.170162,-0.17372 0.09116,-0.0909 0.324318,-0.32943 0.787237,-0.86138 1.225733,-1.98493 1.230071,-3.15184 -1.12e-4,-1.71397 -0.92101,-3.20947 -2.29211,-4.02982 l 0.77351,-6.27957 a 4.6977358,4.6977358 0 0 0 0.710721,-0.116143 l 5.112363,5.606853 a 4.6977358,4.6977358 0 0 0 -0.43098,1.9393 4.6977358,4.6977358 0 0 0 4.697465,4.69818 4.6977358,4.6977358 0 0 0 4.698176,-4.69818 4.6977358,4.6977358 0 0 0 -1.503978,-3.40822 l 0.897712,-7.294883 c 0.561164,-0.208869 1.08302,-0.52182 1.532437,-0.932771 1.157294,-1.120032 0.688991,-0.669577 0.74651,-0.728248 z m -6.370857,10.441598 a 1.922609,1.922609 0 0 1 1.923213,1.92252 1.922609,1.922609 0 0 1 -1.923213,1.92325 1.922609,1.922609 0 0 1 -1.92254,-1.92325 1.922609,1.922609 0 0 1 1.92254,-1.92252 z m -13.268433,2.87939 a 1.922609,1.922609 0 0 1 1.922541,1.92251 1.922609,1.922609 0 0 1 -1.922541,1.92325 1.922609,1.922609 0 0 1 -1.922503,-1.92325 1.922609,1.922609 0 0 1 1.922503,-1.92251 z" />
  </g>
</svg>
