<?xml version="1.0" encoding="UTF-8" standalone="no"?>
<!-- Created with Inkscape (http://www.inkscape.org/) -->

<svg
   width="68.754784mm"
   height="25.525375mm"
   viewBox="0 0 68.754784 25.525375"
   version="1.1"
   id="svg103483"
   inkscape:version="1.1.2 (0a00cf5339, 2022-02-04)"
   sodipodi:docname="nemo-logo-rusty-bright-nomargin.svg"
   xmlns:inkscape="http://www.inkscape.org/namespaces/inkscape"
   xmlns:sodipodi="http://sodipodi.sourceforge.net/DTD/sodipodi-0.dtd"
   xmlns:xlink="http://www.w3.org/1999/xlink"
   xmlns="http://www.w3.org/2000/svg"
   xmlns:svg="http://www.w3.org/2000/svg">
  <sodipodi:namedview
     id="namedview103485"
     pagecolor="#444444"
     bordercolor="#666666"
     borderopacity="1.0"
     inkscape:pageshadow="2"
     inkscape:pageopacity="0"
     inkscape:pagecheckerboard="true"
     inkscape:document-units="mm"
     showgrid="false"
     fit-margin-top="0"
     fit-margin-left="0"
     fit-margin-right="0"
     fit-margin-bottom="0"
     inkscape:zoom="0.80087682"
     inkscape:cx="-80.53673"
     inkscape:cy="124.23883"
     inkscape:window-width="1917"
     inkscape:window-height="1126"
     inkscape:window-x="0"
     inkscape:window-y="0"
     inkscape:window-maximized="1"
     inkscape:current-layer="layer1" />
  <defs
     id="defs103480">
    <linearGradient
       inkscape:collect="always"
       xlink:href="#linearGradient303448"
       id="linearGradient213979"
       gradientUnits="userSpaceOnUse"
       x1="1272.3186"
       y1="-388.23669"
       x2="1248.5779"
       y2="-446.44077" />
    <linearGradient
       inkscape:collect="always"
       id="linearGradient303448">
      <stop
         style="stop-color:#d2e3e7;stop-opacity:1"
         offset="0"
         id="stop303444" />
      <stop
         style="stop-color:#9c8b30;stop-opacity:1"
         offset="1"
         id="stop303446" />
    </linearGradient>
    <linearGradient
       inkscape:collect="always"
       xlink:href="#linearGradient267755"
       id="linearGradient140237"
       x1="1806.8732"
       y1="329.75214"
       x2="1894.3672"
       y2="235.94693"
       gradientUnits="userSpaceOnUse"
       gradientTransform="matrix(0.26458333,0,0,0.26458333,-452.64486,55.24874)" />
    <linearGradient
       inkscape:collect="always"
       id="linearGradient267755">
      <stop
         style="stop-color:#18434e;stop-opacity:1"
         offset="0"
         id="stop267747" />
      <stop
         style="stop-color:#d2e3e7;stop-opacity:1"
         offset="0.61675489"
         id="stop267751" />
      <stop
         style="stop-color:#9c8b30;stop-opacity:1"
         offset="1"
         id="stop267753" />
    </linearGradient>
    <linearGradient
       inkscape:collect="always"
       xlink:href="#linearGradient303448"
       id="linearGradient312492"
       gradientUnits="userSpaceOnUse"
       x1="1272.3186"
       y1="-388.23669"
       x2="1248.5779"
       y2="-446.44077" />
    <linearGradient
       inkscape:collect="always"
       xlink:href="#linearGradient303448"
       id="linearGradient312494"
       gradientUnits="userSpaceOnUse"
       x1="1272.3186"
       y1="-388.23669"
       x2="1248.5779"
       y2="-446.44077" />
    <linearGradient
       inkscape:collect="always"
       xlink:href="#linearGradient303448"
       id="linearGradient312496"
       gradientUnits="userSpaceOnUse"
       x1="1272.3186"
       y1="-388.23669"
       x2="1248.5779"
       y2="-446.44077" />
    <linearGradient
       inkscape:collect="always"
       xlink:href="#linearGradient303448"
       id="linearGradient312498"
       gradientUnits="userSpaceOnUse"
       x1="1272.3186"
       y1="-388.23669"
       x2="1248.5779"
       y2="-446.44077" />
  </defs>
  <g
     inkscape:label="Layer 1"
     inkscape:groupmode="layer"
     id="layer1"
     transform="translate(-24.339766,-115.70694)">
    <g
       aria-label="Nemo"
       id="g105466"
       style="font-weight:bold;font-size:49.882px;line-height:1.25;font-family:Comfortaa;-inkscape-font-specification:'Comfortaa, Bold';letter-spacing:0px;word-spacing:0px;fill:url(#linearGradient213979);fill-opacity:1"
       transform="matrix(0.26458333,0,0,0.26458333,-272.49053,226.56642)">
      <path
         d="m 1239.2298,-364.63898 q -1.0974,0 -1.8456,-0.69835 -0.6984,-0.74823 -0.6984,-1.89551 v -33.77012 q 0,-1.14728 0.6984,-1.84563 0.7482,-0.74823 1.8456,-0.74823 0.5487,0 1.0974,0.29929 0.5487,0.24941 0.8979,0.64847 l 21.7485,28.93156 v -27.28546 q 0,-1.14728 0.7483,-1.84563 0.7482,-0.74823 1.8456,-0.74823 1.0974,0 1.7958,0.74823 0.7482,0.69835 0.7482,1.84563 v 33.77012 q 0,1.14728 -0.7482,1.89551 -0.6984,0.69835 -1.7958,0.69835 -0.5487,0 -1.1473,-0.19953 -0.5487,-0.24941 -0.848,-0.69834 l -21.7485,-28.93156 v 27.23557 q 0,1.0974 -0.7483,1.84563 -0.6983,0.74823 -1.8456,0.74823 z"
         id="path105458"
         style="fill:url(#linearGradient312492);fill-opacity:1" />
      <path
         d="m 1302.0811,-378.7057 q 0,0.94776 -0.6484,1.59622 -0.6485,0.59859 -1.6461,0.59859 h -18.9552 q 0.5487,3.49174 3.1426,5.63666 2.6437,2.14493 6.4347,2.14493 1.4965,0 3.0927,-0.5487 1.6461,-0.54871 2.6937,-1.34682 0.6983,-0.5487 1.6461,-0.5487 0.9477,0 1.4964,0.49882 0.8979,0.74823 0.8979,1.69599 0,0.89787 -0.7981,1.49646 -1.696,1.34681 -4.24,2.19481 -2.4941,0.84799 -4.7887,0.84799 -4.0903,0 -7.3326,-1.74587 -3.2423,-1.79575 -5.088,-4.93832 -1.7957,-3.14256 -1.7957,-7.13312 0,-3.99056 1.696,-7.13313 1.7458,-3.19245 4.7886,-4.93832 3.0927,-1.79575 6.9835,-1.79575 3.8409,0 6.6343,1.69599 2.7934,1.69599 4.2899,4.73879 1.4964,3.0428 1.4964,6.98348 z m -12.4206,-9.12841 q -3.6414,0 -5.9359,1.99528 -2.2447,1.99528 -2.8433,5.33738 h 16.6107 q -0.449,-3.3421 -2.4941,-5.33738 -2.0452,-1.99528 -5.3374,-1.99528 z"
         id="path105460"
         style="fill:url(#linearGradient312494);fill-opacity:1" />
      <path
         d="m 1337.2479,-392.17384 q 4.3397,0 6.9834,2.84327 2.6937,2.84328 2.6937,7.93124 v 14.26625 q 0,1.09741 -0.6984,1.84564 -0.6983,0.69834 -1.8456,0.69834 -1.0974,0 -1.8456,-0.69834 -0.6984,-0.74823 -0.6984,-1.84564 v -14.26625 q 0,-3.0428 -1.5463,-4.58914 -1.4965,-1.59623 -4.0405,-1.59623 -2.5938,0 -4.2898,1.79575 -1.6461,1.79576 -1.6461,4.58915 v 14.06672 q 0,1.09741 -0.6984,1.84564 -0.6983,0.69834 -1.8456,0.69834 -1.0974,0 -1.8457,-0.69834 -0.6983,-0.74823 -0.6983,-1.84564 v -14.26625 q 0,-3.0428 -1.5463,-4.58914 -1.4965,-1.59623 -4.0405,-1.59623 -2.6437,0 -4.3397,1.79575 -1.6461,1.79576 -1.6461,4.58915 v 14.06672 q 0,1.09741 -0.6984,1.84564 -0.6983,0.69834 -1.8456,0.69834 -1.0974,0 -1.8456,-0.69834 -0.6984,-0.74823 -0.6984,-1.84564 v -22.19749 q 0,-1.14728 0.6984,-1.84563 0.7482,-0.69835 1.8456,-0.69835 1.0974,0 1.7957,0.69835 0.6984,0.64846 0.7483,1.74587 1.2969,-1.29693 3.0927,-1.99528 1.7957,-0.74823 3.8908,-0.74823 2.5439,0 4.5392,1.04752 2.0452,0.99764 3.3421,2.89316 1.4965,-1.84564 3.7412,-2.89316 2.2447,-1.04752 4.9882,-1.04752 z"
         id="path105462"
         style="fill:url(#linearGradient312496);fill-opacity:1" />
      <path
         d="m 1367.7257,-364.43945 q -3.9905,0 -7.1331,-1.74587 -3.1425,-1.79575 -4.8884,-4.93832 -1.7459,-3.14256 -1.7459,-7.13312 0,-4.04045 1.7459,-7.18301 1.7459,-3.14257 4.8884,-4.88844 3.1426,-1.79575 7.1331,-1.79575 3.9407,0 7.0334,1.79575 3.1426,1.74587 4.8884,4.88844 1.7958,3.14256 1.7958,7.18301 0,3.99056 -1.7459,7.13312 -1.7458,3.14257 -4.8884,4.93832 -3.0927,1.74587 -7.0833,1.74587 z m 0,-4.48938 q 2.544,0 4.5393,-1.19717 2.0452,-1.19717 3.1426,-3.29221 1.1473,-2.14493 1.1473,-4.83855 0,-2.69363 -1.1473,-4.83856 -1.0974,-2.14492 -3.1426,-3.34209 -1.9953,-1.19717 -4.5393,-1.19717 -2.5439,0 -4.5891,1.19717 -1.9953,1.19717 -3.1426,3.34209 -1.1472,2.14493 -1.1472,4.83856 0,2.69362 1.1472,4.83855 1.1473,2.09504 3.1426,3.29221 2.0452,1.19717 4.5891,1.19717 z"
         id="path105464"
         style="fill:url(#linearGradient312498);fill-opacity:1" />
    </g>
    <g
       aria-label="Graph Rule Engine"
       id="g105498"
       style="font-weight:bold;font-size:15.2297px;line-height:1.25;font-family:Comfortaa;-inkscape-font-specification:'Comfortaa, Bold';letter-spacing:0px;word-spacing:0px;fill:#d2e3e7;fill-opacity:1;stroke-width:0.999996"
       transform="matrix(0.26458333,0,0,0.26458333,-272.49053,226.56642)">
      <path
         d="m 1244.1084,-347.68878 q 0.335,0 0.5482,0.22845 0.2285,0.21321 0.2285,0.56349 v 3.6399 q 0,0.36552 -0.2437,0.5635 -1.5991,1.32499 -3.7313,1.32499 -1.6296,0 -2.985,-0.80718 -1.3402,-0.80717 -2.1169,-2.20831 -0.7767,-1.40113 -0.7767,-3.09162 0,-1.67527 0.7767,-3.06117 0.7767,-1.40114 2.1169,-2.20831 1.3554,-0.8224 2.985,-0.8224 1.1575,0 1.9951,0.30459 0.8529,0.30459 1.721,1.00516 0.1827,0.13707 0.2436,0.28936 0.061,0.13707 0.061,0.33506 0,0.30459 -0.2285,0.50258 -0.2132,0.19798 -0.5178,0.19798 -0.2741,0 -0.5178,-0.19798 -0.6244,-0.53304 -1.2184,-0.76149 -0.5939,-0.24367 -1.5382,-0.24367 -1.1879,0 -2.193,0.62441 -0.99,0.62442 -1.5839,1.70573 -0.5788,1.06608 -0.5788,2.33015 0,1.27929 0.5788,2.34537 0.5939,1.06608 1.5839,1.6905 1.0051,0.62441 2.193,0.62441 1.2793,0 2.452,-0.76148 v -2.71089 h -2.1017 q -0.3503,0 -0.5787,-0.19798 -0.2132,-0.19799 -0.2132,-0.50258 0,-0.3046 0.2132,-0.50258 0.2284,-0.19799 0.5787,-0.19799 z"
         id="path105468"
         style="fill:#d2e3e7;fill-opacity:1" />
      <path
         d="m 1251.3424,-349.94278 q 0.8072,0 1.2641,0.24368 0.4569,0.24367 0.4569,0.60919 0,0.10661 -0.015,0.15229 -0.1371,0.48735 -0.6092,0.48735 -0.076,0 -0.2285,-0.0305 -0.6091,-0.10661 -0.9899,-0.10661 -1.0965,0 -1.7666,0.50258 -0.6701,0.50258 -0.6701,1.35544 v 4.44707 q 0,0.36552 -0.198,0.5635 -0.1828,0.19799 -0.5635,0.19799 -0.3655,0 -0.5635,-0.18276 -0.198,-0.19798 -0.198,-0.57873 v -6.80767 q 0,-0.36552 0.198,-0.5635 0.198,-0.19799 0.5635,-0.19799 0.7615,0 0.7615,0.76149 v 0.28936 q 0.4569,-0.53304 1.127,-0.83763 0.6701,-0.3046 1.4315,-0.3046 z"
         id="path105470"
         style="fill:#d2e3e7;fill-opacity:1" />
      <path
         d="m 1257.8303,-349.91232 q 1.1726,0 2.1169,0.5635 0.9595,0.54827 1.5077,1.52297 0.5635,0.95947 0.5635,2.14739 v 3.39622 q 0,0.33506 -0.2284,0.5635 -0.2132,0.21322 -0.5483,0.21322 -0.335,0 -0.5635,-0.21322 -0.2132,-0.22844 -0.2132,-0.5635 v -0.5635 q -0.533,0.65488 -1.2945,1.02039 -0.7615,0.36552 -1.6448,0.36552 -1.0966,0 -1.9951,-0.54827 -0.8833,-0.54827 -1.4012,-1.50774 -0.5025,-0.9747 -0.5025,-2.16262 0,-1.18792 0.5482,-2.14739 0.5483,-0.9747 1.5078,-1.52297 0.9747,-0.5635 2.1474,-0.5635 z m 0,7.08181 q 0.7614,0 1.3706,-0.36551 0.6245,-0.38074 0.9747,-1.02039 0.3503,-0.65488 0.3503,-1.46205 0,-0.80717 -0.3503,-1.46205 -0.3502,-0.65488 -0.9747,-1.02039 -0.6092,-0.38074 -1.3706,-0.38074 -0.7615,0 -1.3859,0.38074 -0.6092,0.36551 -0.9747,1.02039 -0.3503,0.65488 -0.3503,1.46205 0,0.80717 0.3503,1.46205 0.3655,0.63965 0.9747,1.02039 0.6244,0.36551 1.3859,0.36551 z"
         id="path105472"
         style="fill:#d2e3e7;fill-opacity:1" />
      <path
         d="m 1268.5215,-349.91232 q 1.1727,0 2.1322,0.5635 0.9747,0.54827 1.5229,1.52297 0.5483,0.95947 0.5483,2.14739 0,1.18792 -0.5178,2.16262 -0.5026,0.95947 -1.4011,1.50774 -0.8834,0.54827 -1.9799,0.54827 -0.8833,0 -1.6448,-0.36552 -0.7615,-0.36551 -1.2945,-1.02039 v 4.11202 q 0,0.35029 -0.2133,0.5635 -0.2132,0.21322 -0.5635,0.21322 -0.335,0 -0.5635,-0.21322 -0.2132,-0.21321 -0.2132,-0.5635 v -6.94474 q 0,-1.18792 0.5483,-2.14739 0.5635,-0.9747 1.5077,-1.52297 0.9595,-0.5635 2.1322,-0.5635 z m 0,7.08181 q 0.7615,0 1.3707,-0.36551 0.6244,-0.38074 0.9747,-1.02039 0.3655,-0.65488 0.3655,-1.46205 0,-0.80717 -0.3655,-1.46205 -0.3503,-0.65488 -0.9747,-1.02039 -0.6092,-0.38074 -1.3707,-0.38074 -0.7615,0 -1.3859,0.38074 -0.6092,0.36551 -0.9595,1.02039 -0.3503,0.65488 -0.3503,1.46205 0,0.80717 0.3503,1.46205 0.3503,0.63965 0.9595,1.02039 0.6244,0.36551 1.3859,0.36551 z"
         id="path105474"
         style="fill:#d2e3e7;fill-opacity:1" />
      <path
         d="m 1279.1823,-349.92755 q 1.0508,0 1.8885,0.45689 0.8376,0.4569 1.3097,1.34022 0.4721,0.86809 0.4721,2.1017 v 3.7465 q 0,0.33506 -0.2284,0.5635 -0.2132,0.21322 -0.5483,0.21322 -0.335,0 -0.5635,-0.21322 -0.2132,-0.22844 -0.2132,-0.5635 v -3.7465 q 0,-1.23361 -0.6701,-1.85803 -0.6549,-0.63964 -1.7514,-0.63964 -0.6397,0 -1.1727,0.2589 -0.5178,0.25891 -0.8224,0.70057 -0.2894,0.44166 -0.2894,0.98993 v 4.29477 q 0,0.33506 -0.2132,0.5635 -0.2132,0.21322 -0.5635,0.21322 -0.335,0 -0.5635,-0.21322 -0.2132,-0.22844 -0.2132,-0.5635 v -10.35619 q 0,-0.35029 0.2132,-0.5635 0.2285,-0.21322 0.5635,-0.21322 0.3503,0 0.5635,0.21322 0.2132,0.21321 0.2132,0.5635 v 3.73127 q 0.4874,-0.48735 1.1575,-0.74625 0.6701,-0.27414 1.4316,-0.27414 z"
         id="path105476"
         style="fill:#d2e3e7;fill-opacity:1" />
      <path
         d="m 1297.7777,-342.73913 q 0.1523,0.24368 0.1523,0.50258 0,0.3046 -0.2132,0.51781 -0.198,0.19799 -0.5483,0.19799 -0.4416,0 -0.6853,-0.38074 l -2.6195,-4.2034 h -0.2742 -1.9494 v 3.79219 q 0,0.33506 -0.2284,0.5635 -0.2132,0.22845 -0.5635,0.22845 -0.3351,0 -0.5635,-0.22845 -0.2285,-0.22844 -0.2285,-0.5635 v -10.3105 q 0,-0.35029 0.2285,-0.5635 0.2284,-0.22845 0.5635,-0.22845 h 2.7413 q 1.127,0 2.0104,0.47212 0.8985,0.47212 1.3859,1.32499 0.5025,0.85286 0.5025,1.9494 0,1.08131 -0.5482,1.91894 -0.5483,0.83763 -1.4925,1.26407 z m -4.1882,-4.82781 q 1.0357,0 1.7058,-0.57873 0.6701,-0.59396 0.6701,-1.52297 0,-1.00516 -0.6701,-1.64481 -0.6701,-0.63965 -1.7058,-0.63965 h -1.9494 v 4.38616 z"
         id="path105478"
         style="fill:#d2e3e7;fill-opacity:1" />
      <path
         d="m 1306.3977,-349.86663 q 0.3503,0 0.5635,0.21322 0.2132,0.21321 0.2132,0.5635 v 6.79244 q 0,0.33506 -0.2132,0.5635 -0.2132,0.21322 -0.5635,0.21322 -0.335,0 -0.5635,-0.21322 -0.2132,-0.22844 -0.2132,-0.5635 v -0.16752 q -0.4874,0.48735 -1.1575,0.76148 -0.6701,0.25891 -1.4315,0.25891 -1.0509,0 -1.8885,-0.45689 -0.8377,-0.4569 -1.3098,-1.32499 -0.4721,-0.88332 -0.4721,-2.11693 v -3.7465 q 0,-0.33506 0.2132,-0.54827 0.2285,-0.22845 0.5635,-0.22845 0.3351,0 0.5483,0.22845 0.2284,0.21321 0.2284,0.54827 v 3.7465 q 0,1.23361 0.6549,1.87326 0.6701,0.62441 1.7666,0.62441 0.6397,0 1.1575,-0.2589 0.533,-0.25891 0.8224,-0.70057 0.3046,-0.44166 0.3046,-0.98993 v -4.29477 q 0,-0.35029 0.2132,-0.5635 0.2285,-0.21322 0.5635,-0.21322 z"
         id="path105480"
         style="fill:#d2e3e7;fill-opacity:1" />
      <path
         d="m 1311.8956,-341.52075 q -0.6549,0 -1.1879,-0.35029 -0.5178,-0.36551 -0.8072,-1.00516 -0.2893,-0.65487 -0.2893,-1.46205 v -8.31541 q 0,-0.33506 0.2132,-0.54827 0.2132,-0.21322 0.5483,-0.21322 0.335,0 0.5482,0.21322 0.2132,0.21321 0.2132,0.54827 v 8.31541 q 0,0.5635 0.2133,0.92902 0.2132,0.36551 0.5482,0.36551 h 0.3808 q 0.3046,0 0.4873,0.21321 0.198,0.21322 0.198,0.54827 0,0.33506 -0.2894,0.54827 -0.2893,0.21322 -0.7462,0.21322 z"
         id="path105482"
         style="fill:#d2e3e7;fill-opacity:1" />
      <path
         d="m 1321.5055,-345.81553 q 0,0.28937 -0.1979,0.48735 -0.198,0.18276 -0.5026,0.18276 h -5.7873 q 0.1675,1.06608 0.9595,1.72096 0.8071,0.65487 1.9646,0.65487 0.4569,0 0.9442,-0.16752 0.5026,-0.16753 0.8224,-0.41121 0.2133,-0.16752 0.5026,-0.16752 0.2894,0 0.4569,0.15229 0.2741,0.22845 0.2741,0.51781 0,0.27414 -0.2436,0.4569 -0.5178,0.4112 -1.2946,0.6701 -0.7614,0.25891 -1.462,0.25891 -1.2488,0 -2.2388,-0.53304 -0.9899,-0.54827 -1.5534,-1.50774 -0.5483,-0.95947 -0.5483,-2.17785 0,-1.21838 0.5178,-2.17785 0.5331,-0.9747 1.4621,-1.50774 0.9442,-0.54827 2.1321,-0.54827 1.1727,0 2.0256,0.51781 0.8529,0.51781 1.3098,1.44682 0.4568,0.92902 0.4568,2.13216 z m -3.7922,-2.78703 q -1.1117,0 -1.8123,0.60919 -0.6853,0.60918 -0.8681,1.62957 h 5.0715 q -0.1371,-1.02039 -0.7615,-1.62957 -0.6244,-0.60919 -1.6296,-0.60919 z"
         id="path105484"
         style="fill:#d2e3e7;fill-opacity:1" />
      <path
         d="m 1328.8919,-341.52075 q -0.335,0 -0.5635,-0.22845 -0.2284,-0.22844 -0.2284,-0.5635 v -10.3105 q 0,-0.35029 0.2284,-0.5635 0.2285,-0.22845 0.5635,-0.22845 h 6.8838 q 0.3503,0 0.5635,0.21322 0.2132,0.19798 0.2132,0.53304 0,0.31982 -0.2132,0.51781 -0.2132,0.19798 -0.5635,0.19798 h -6.0918 v 3.70082 h 4.3709 q 0.335,0 0.5482,0.21322 0.2285,0.19798 0.2285,0.51781 0,0.31982 -0.2285,0.53304 -0.2132,0.19798 -0.5482,0.19798 h -4.3709 v 3.80743 h 6.0918 q 0.3503,0 0.5635,0.19798 0.2132,0.19799 0.2132,0.51781 0,0.33506 -0.2132,0.54827 -0.2132,0.19799 -0.5635,0.19799 z"
         id="path105486"
         style="fill:#d2e3e7;fill-opacity:1" />
      <path
         d="m 1342.7509,-349.92755 q 1.0509,0 1.8885,0.45689 0.8376,0.4569 1.3098,1.34022 0.4721,0.86809 0.4721,2.1017 v 3.7465 q 0,0.33506 -0.2285,0.5635 -0.2132,0.21322 -0.5482,0.21322 -0.3351,0 -0.5635,-0.21322 -0.2133,-0.22844 -0.2133,-0.5635 v -3.7465 q 0,-1.23361 -0.6701,-1.85803 -0.6548,-0.63964 -1.7514,-0.63964 -0.6396,0 -1.1727,0.2589 -0.5178,0.25891 -0.8224,0.70057 -0.2893,0.44166 -0.2893,0.98993 v 4.29477 q 0,0.33506 -0.2132,0.5635 -0.2133,0.21322 -0.5635,0.21322 -0.3351,0 -0.5635,-0.21322 -0.2133,-0.22844 -0.2133,-0.5635 v -6.79244 q 0,-0.35029 0.2133,-0.5635 0.2284,-0.21322 0.5635,-0.21322 0.3502,0 0.5635,0.21322 0.2132,0.21321 0.2132,0.5635 v 0.16752 q 0.4873,-0.48735 1.1574,-0.74625 0.6701,-0.27414 1.4316,-0.27414 z"
         id="path105488"
         style="fill:#d2e3e7;fill-opacity:1" />
      <path
         d="m 1352.7721,-349.91232 q 1.2031,0 2.1473,0.54827 0.9595,0.53304 1.4925,1.49251 0.5483,0.95947 0.5483,2.19308 v 3.28962 q 0,1.20314 -0.533,2.19307 -0.5331,0.98993 -1.5078,1.55343 -0.9594,0.57873 -2.1778,0.57873 -1.0965,0 -2.0408,-0.44166 -0.9442,-0.42643 -1.5839,-1.23361 -0.1675,-0.21321 -0.1675,-0.42643 0,-0.31982 0.3198,-0.54827 0.2132,-0.13707 0.4265,-0.13707 0.3807,0 0.6244,0.31983 0.4112,0.53304 1.0356,0.80717 0.6244,0.28937 1.4164,0.28937 0.7462,0 1.3554,-0.36552 0.6092,-0.35028 0.9747,-1.05085 0.3655,-0.68533 0.3655,-1.6448 v -0.74626 q -0.4721,0.83764 -1.2488,1.30976 -0.7767,0.47212 -1.7514,0.47212 -1.127,0 -2.0256,-0.53304 -0.8833,-0.54827 -1.3859,-1.50774 -0.4873,-0.95947 -0.4873,-2.17785 0,-1.23361 0.533,-2.19308 0.533,-0.95947 1.4925,-1.49251 0.9595,-0.54827 2.1779,-0.54827 z m 0,7.08181 q 0.7767,0 1.3859,-0.36551 0.6244,-0.36551 0.9594,-1.00516 0.3503,-0.65488 0.3503,-1.47728 0,-0.8224 -0.3503,-1.47728 -0.335,-0.65488 -0.9594,-1.02039 -0.6092,-0.36551 -1.3859,-0.36551 -0.7768,0 -1.4012,0.36551 -0.6092,0.36551 -0.9595,1.02039 -0.3502,0.65488 -0.3502,1.47728 0,0.8224 0.3502,1.47728 0.3503,0.63965 0.9595,1.00516 0.6244,0.36551 1.4012,0.36551 z"
         id="path105490"
         style="fill:#d2e3e7;fill-opacity:1" />
      <path
         d="m 1360.2041,-341.52075 q -0.335,0 -0.5635,-0.21322 -0.2132,-0.22844 -0.2132,-0.5635 v -6.77721 q 0,-0.35029 0.2132,-0.5635 0.2285,-0.21322 0.5635,-0.21322 0.3503,0 0.5635,0.21322 0.2132,0.21321 0.2132,0.5635 v 6.77721 q 0,0.33506 -0.2132,0.5635 -0.2132,0.21322 -0.5635,0.21322 z m 0,-9.68609 q -0.4112,0 -0.7158,-0.28937 -0.2893,-0.30459 -0.2893,-0.71579 0,-0.4112 0.2893,-0.70057 0.3046,-0.30459 0.7158,-0.30459 0.4112,0 0.7006,0.30459 0.3046,0.28937 0.3046,0.70057 0,0.4112 -0.3046,0.71579 -0.2894,0.28937 -0.7006,0.28937 z"
         id="path105492"
         style="fill:#d2e3e7;fill-opacity:1" />
      <path
         d="m 1368.0169,-349.92755 q 1.0509,0 1.8885,0.45689 0.8377,0.4569 1.3098,1.34022 0.4721,0.86809 0.4721,2.1017 v 3.7465 q 0,0.33506 -0.2285,0.5635 -0.2132,0.21322 -0.5482,0.21322 -0.3351,0 -0.5635,-0.21322 -0.2132,-0.22844 -0.2132,-0.5635 v -3.7465 q 0,-1.23361 -0.6701,-1.85803 -0.6549,-0.63964 -1.7515,-0.63964 -0.6396,0 -1.1726,0.2589 -0.5179,0.25891 -0.8224,0.70057 -0.2894,0.44166 -0.2894,0.98993 v 4.29477 q 0,0.33506 -0.2132,0.5635 -0.2132,0.21322 -0.5635,0.21322 -0.3351,0 -0.5635,-0.21322 -0.2132,-0.22844 -0.2132,-0.5635 v -6.79244 q 0,-0.35029 0.2132,-0.5635 0.2284,-0.21322 0.5635,-0.21322 0.3503,0 0.5635,0.21322 0.2132,0.21321 0.2132,0.5635 v 0.16752 q 0.4873,-0.48735 1.1574,-0.74625 0.6702,-0.27414 1.4316,-0.27414 z"
         id="path105494"
         style="fill:#d2e3e7;fill-opacity:1" />
      <path
         d="m 1381.7389,-345.81553 q 0,0.28937 -0.198,0.48735 -0.198,0.18276 -0.5026,0.18276 h -5.7873 q 0.1676,1.06608 0.9595,1.72096 0.8072,0.65487 1.9646,0.65487 0.4569,0 0.9443,-0.16752 0.5026,-0.16753 0.8224,-0.41121 0.2132,-0.16752 0.5026,-0.16752 0.2893,0 0.4569,0.15229 0.2741,0.22845 0.2741,0.51781 0,0.27414 -0.2437,0.4569 -0.5178,0.4112 -1.2945,0.6701 -0.7615,0.25891 -1.4621,0.25891 -1.2488,0 -2.2387,-0.53304 -0.9899,-0.54827 -1.5534,-1.50774 -0.5483,-0.95947 -0.5483,-2.17785 0,-1.21838 0.5178,-2.17785 0.533,-0.9747 1.462,-1.50774 0.9443,-0.54827 2.1322,-0.54827 1.1727,0 2.0256,0.51781 0.8528,0.51781 1.3097,1.44682 0.4569,0.92902 0.4569,2.13216 z m -3.7922,-2.78703 q -1.1118,0 -1.8123,0.60919 -0.6854,0.60918 -0.8681,1.62957 h 5.0715 q -0.1371,-1.02039 -0.7615,-1.62957 -0.6244,-0.60919 -1.6296,-0.60919 z"
         id="path105496"
         style="fill:#d2e3e7;fill-opacity:1" />
    </g>
    <path
       id="path105500"
       style="color:#000000;fill:url(#linearGradient140237);fill-opacity:1;stroke-width:0.264583;stroke-miterlimit:6;-inkscape-stroke:none"
       d="m 35.874741,115.70867 c -0.121074,0.0116 -0.236723,0.0827 -0.296122,0.20774 l -0.544671,1.14308 c -0.112845,0.0205 -0.225134,0.0418 -0.336921,0.0656 l -0.935857,-0.85111 c -0.204629,-0.18648 -0.5343,-0.0876 -0.602033,0.18086 l -0.312129,1.23145 c -0.104881,0.0416 -0.20918,0.0836 -0.312632,0.12816 l -1.08831,-0.65474 c -0.237094,-0.14297 -0.540967,0.0186 -0.555017,0.29507 l -0.06562,1.27279 c -0.09353,0.0604 -0.186293,0.12197 -0.278024,0.18501 l -1.198906,-0.4315 c -0.26043,-0.094 -0.526944,0.12398 -0.486781,0.3979 l 0.183463,1.26091 c -0.08006,0.0773 -0.158856,0.15552 -0.236697,0.23513 l -1.259866,-0.18914 c -0.273738,-0.0414 -0.492787,0.2239 -0.399971,0.48473 l 0.424789,1.19682 c -0.06432,0.0925 -0.126418,0.18665 -0.188119,0.28112 l -1.26918,0.0605 c -0.276569,0.0128 -0.439076,0.31576 -0.297127,0.55346 l 0.646986,1.08675 c -0.04561,0.1048 -0.08811,0.21135 -0.130731,0.31781 l -1.229386,0.30541 c -0.268738,0.0665 -0.369544,0.39608 -0.183965,0.60151 l 0.847487,0.94 c -0.02408,0.11143 -0.04577,0.2237 -0.06668,0.33641 l -1.146175,0.54002 c -0.250587,0.11769 -0.285142,0.45999 -0.06305,0.62529 l 1.015444,0.75757 c -0.0026,0.11462 -0.0034,0.22914 -0.0026,0.34314 l -1.017508,0.75189 c -0.222832,0.16431 -0.19013,0.507 0.05993,0.6258 l 1.143609,0.54467 c 0.02064,0.11283 0.0418,0.22565 0.06562,0.33745 l -0.851111,0.93586 c -0.186479,0.20462 -0.08758,0.5343 0.180869,0.60203 l 1.23145,0.31161 c 0.04162,0.10488 0.08356,0.2097 0.128164,0.31315 l -0.654738,1.08831 c -0.142981,0.23708 0.01852,0.54043 0.295064,0.55449 l 1.272804,0.0661 c 0.06043,0.0936 0.121973,0.18629 0.184997,0.27802 l -0.431509,1.1989 c -0.09395,0.26041 0.123481,0.52694 0.397404,0.48679 l 1.261428,-0.18397 c 0.07731,0.0801 0.155522,0.15882 0.235108,0.23668 l -0.189124,1.26039 c -0.04138,0.27374 0.223891,0.49228 0.484717,0.39946 l 1.196842,-0.42427 c 0.09247,0.0643 0.186638,0.1264 0.28112,0.1881 l 0.06046,1.26918 c 0.0127,0.27655 0.315753,0.43906 0.553455,0.29714 l 1.08675,-0.64751 c 0.104801,0.0456 0.211349,0.0886 0.317817,0.13126 l 0.305409,1.22938 c 0.06654,0.26874 0.396054,0.36903 0.601503,0.18345 l 0.939986,-0.84697 c 0.111416,0.0241 0.223705,0.0453 0.336417,0.0661 l 0.539512,1.1467 c 0.117713,0.25059 0.460481,0.28513 0.625793,0.0631 l 0.757581,-1.01596 c 0.114618,0.002 0.228626,0.004 0.342609,0.002 l 0.752422,1.01752 c 0.164306,0.22281 0.506995,0.19011 0.625793,-0.06 l 0.544671,-1.1436 c 0.112845,-0.0205 0.225663,-0.0413 0.337449,-0.0651 l 0.935858,0.85111 c 0.204629,0.18647 0.5343,0.0871 0.602033,-0.18138 l 0.3116,-1.23145 c 0.104881,-0.0416 0.209708,-0.0836 0.313161,-0.12816 l 1.08831,0.65474 c 0.237093,0.14297 0.540438,-0.0186 0.554487,-0.29507 l 0.06615,-1.27279 c 0.09353,-0.0604 0.185764,-0.12145 0.277495,-0.18449 l 1.199409,0.43098 c 0.26043,0.094 0.526971,-0.12347 0.486807,-0.39739 l -0.183964,-1.26091 c 0.08006,-0.0773 0.158829,-0.15603 0.236669,-0.23564 l 1.260396,0.18914 c 0.273738,0.0414 0.492257,-0.2239 0.399441,-0.48473 l -0.424259,-1.19683 c 0.06432,-0.0925 0.126418,-0.18664 0.188119,-0.28112 l 1.269153,-0.0599 c 0.276569,-0.0128 0.439103,-0.31627 0.297154,-0.55397 l -0.647515,-1.08676 c 0.04561,-0.10479 0.08864,-0.21134 0.13126,-0.31781 l 1.229386,-0.3054 c 0.268737,-0.0665 0.369014,-0.39607 0.183436,-0.60152 l -0.846958,-0.93999 c 0.02408,-0.11144 0.04524,-0.22371 0.06615,-0.33641 l 1.146704,-0.53951 c 0.250587,-0.11769 0.284612,-0.4605 0.06252,-0.6258 l -1.015444,-0.75757 c 0.0026,-0.11462 0.0034,-0.22862 0.0026,-0.34262 l 1.017509,-0.75241 c 0.222832,-0.16432 0.190103,-0.50701 -0.05996,-0.6258 l -1.143609,-0.54467 c -0.02064,-0.11283 -0.0413,-0.22565 -0.06511,-0.33745 l 0.851111,-0.93534 c 0.186479,-0.20463 0.08758,-0.53482 -0.180869,-0.60255 l -1.231424,-0.31161 c -0.04172,-0.10488 -0.08355,-0.20971 -0.128164,-0.31315 l 0.654209,-1.08831 c 0.142981,-0.23708 -0.01799,-0.54044 -0.294534,-0.55449 l -1.272805,-0.0662 c -0.06043,-0.0935 -0.121973,-0.18577 -0.184997,-0.2775 l 0.431483,-1.19941 c 0.09395,-0.26041 -0.123984,-0.52694 -0.397907,-0.48679 l -1.260898,0.18397 c -0.07731,-0.0801 -0.156051,-0.15882 -0.235638,-0.23668 l 0.189124,-1.26039 c 0.04138,-0.27374 -0.223361,-0.49228 -0.484187,-0.39946 l -1.197346,0.42427 c -0.09247,-0.0643 -0.186637,-0.1264 -0.28112,-0.18811 l -0.05995,-1.26865 c -0.0127,-0.27655 -0.316283,-0.43958 -0.553985,-0.29766 l -1.086749,0.64751 c -0.104802,-0.0456 -0.21082,-0.0886 -0.317289,-0.13126 l -0.305911,-1.22887 c -0.06654,-0.26873 -0.395552,-0.36954 -0.601001,-0.18396 l -0.940012,0.84697 c -0.111416,-0.0241 -0.223678,-0.0453 -0.336391,-0.0661 L 38.6828,115.92303 c -0.05884,-0.12529 -0.17354,-0.1971 -0.294534,-0.20929 -0.120968,-0.0122 -0.248073,0.0352 -0.330729,0.14625 l -0.757582,1.01544 c -0.114617,-0.002 -0.229155,-0.004 -0.343138,-0.002 l -0.751893,-1.0175 c -0.08215,-0.11141 -0.209126,-0.15891 -0.3302,-0.14728 z m 1.207161,3.35896 c 0.318267,-10e-5 0.639551,0.0155 0.963242,0.0481 0.804281,0.081 1.574192,0.2606 2.299071,0.52504 -0.11774,0.12022 -0.01931,0.0187 -0.178779,0.1819 -0.556975,0.60939 -0.867172,1.40427 -0.870241,2.22983 7.9e-5,1.23736 0.677968,2.31458 1.68103,2.88665 l -0.55708,4.52531 a 3.3235169,3.3235169 0 0 0 -0.442331,0.0858 l -3.588411,-3.93568 a 3.3235169,3.3235169 0 0 0 0.320913,-1.41852 3.3235169,3.3235169 0 0 0 -3.323325,-3.32382 3.3235169,3.3235169 0 0 0 -3.323829,3.32382 3.3235169,3.3235169 0 0 0 0.972027,2.31873 l -0.630952,5.12423 c -0.422275,0.14706 -0.815261,0.3758 -1.150832,0.68264 -0.769276,0.74452 -0.434181,0.42229 -0.496094,0.48421 -0.814361,-1.56768 -1.197504,-3.38336 -1.00666,-5.27823 0.48903,-4.85525 4.558162,-8.4583 9.332251,-8.45995 z m 5.536592,1.62419 a 1.3601922,1.3601922 0 0 1 1.360143,1.36013 1.3601922,1.3601922 0 0 1 -1.360143,1.36064 1.3601922,1.3601922 0 0 1 -1.360117,-1.36064 1.3601922,1.3601922 0 0 1 1.360117,-1.36013 z m -9.232503,2.14406 a 1.3601922,1.3601922 0 0 1 1.360117,1.36012 1.3601922,1.3601922 0 0 1 -1.360117,1.36013 1.3601922,1.3601922 0 0 1 -1.360118,-1.36013 1.3601922,1.3601922 0 0 1 1.360118,-1.36012 z m 11.989964,1.15393 c 0.866298,1.5997 1.277752,3.46919 1.081087,5.4219 -0.521626,5.17893 -5.117094,8.9335 -10.296022,8.41188 -0.863044,-0.0869 -1.684946,-0.28949 -2.455677,-0.58652 0.120385,-0.1229 0.06451,-0.0643 0.229446,-0.23306 0.556948,-0.6094 0.867172,-1.40428 0.870241,-2.22984 -7.9e-5,-1.21259 -0.651589,-2.27061 -1.621604,-2.85099 l 0.547237,-4.44262 a 3.3235169,3.3235169 0 0 0 0.502814,-0.0822 l 3.616855,3.96669 a 3.3235169,3.3235169 0 0 0 -0.304906,1.37201 3.3235169,3.3235169 0 0 0 3.323325,3.32382 3.3235169,3.3235169 0 0 0 3.323828,-3.32382 3.3235169,3.3235169 0 0 0 -1.064022,-2.41123 l 0.635106,-5.16092 c 0.397007,-0.14777 0.766207,-0.36918 1.084157,-0.65991 0.818753,-0.79239 0.487442,-0.47371 0.528135,-0.51522 z m -4.507204,7.38715 a 1.3601922,1.3601922 0 0 1 1.36062,1.36013 1.3601922,1.3601922 0 0 1 -1.36062,1.36063 1.3601922,1.3601922 0 0 1 -1.360143,-1.36063 1.3601922,1.3601922 0 0 1 1.360143,-1.36013 z m -9.387046,2.03709 a 1.3601922,1.3601922 0 0 1 1.360143,1.36012 1.3601922,1.3601922 0 0 1 -1.360143,1.36064 1.3601922,1.3601922 0 0 1 -1.360117,-1.36064 1.3601922,1.3601922 0 0 1 1.360117,-1.36012 z" />
  </g>
</svg>
