<?xml version="1.0" encoding="UTF-8" standalone="no"?>
<!-- Created with Inkscape (http://www.inkscape.org/) -->

<svg
   width="36.0807mm"
   height="36.0807mm"
   viewBox="0 0 36.0807 36.080701"
   version="1.1"
   id="svg103483"
   inkscape:version="1.1.2 (0a00cf5339, 2022-02-04)"
   sodipodi:docname="nemo-logo-rusty-bright.svg"
   xmlns:inkscape="http://www.inkscape.org/namespaces/inkscape"
   xmlns:sodipodi="http://sodipodi.sourceforge.net/DTD/sodipodi-0.dtd"
   xmlns:xlink="http://www.w3.org/1999/xlink"
   xmlns="http://www.w3.org/2000/svg"
   xmlns:svg="http://www.w3.org/2000/svg">
  <sodipodi:namedview
     id="namedview103485"
     pagecolor="#626262"
     bordercolor="#666666"
     borderopacity="1.0"
     inkscape:pageshadow="2"
     inkscape:pageopacity="0"
     inkscape:pagecheckerboard="true"
     inkscape:document-units="mm"
     showgrid="false"
     fit-margin-top="0"
     fit-margin-left="0"
     fit-margin-right="0"
     fit-margin-bottom="0"
     inkscape:zoom="1.6631321"
     inkscape:cx="21.946543"
     inkscape:cy="-21.946543"
     inkscape:window-width="1917"
     inkscape:window-height="1126"
     inkscape:window-x="0"
     inkscape:window-y="0"
     inkscape:window-maximized="1"
     inkscape:current-layer="layer1" />
  <defs
     id="defs103480">
    <linearGradient
       inkscape:collect="always"
       xlink:href="#linearGradient267755"
       id="linearGradient313345"
       gradientUnits="userSpaceOnUse"
       gradientTransform="matrix(0.26458333,0,0,0.26458333,-414.62718,19.164152)"
       x1="1806.8732"
       y1="329.75214"
       x2="1901.7275"
       y2="228.38689" />
    <linearGradient
       inkscape:collect="always"
       id="linearGradient267755">
      <stop
         style="stop-color:#18434e;stop-opacity:1"
         offset="0"
         id="stop267747" />
      <stop
         style="stop-color:#d2e3e7;stop-opacity:1"
         offset="0.61675489"
         id="stop267751" />
      <stop
         style="stop-color:#9c8b30;stop-opacity:1"
         offset="1"
         id="stop267753" />
    </linearGradient>
  </defs>
  <g
     inkscape:label="Layer 1"
     inkscape:groupmode="layer"
     id="layer1"
     transform="translate(-57.080078,-74.344765)">
    <path
       id="path313343"
       style="color:#000000;fill:url(#linearGradient313345);fill-opacity:1;stroke-width:0.264583;stroke-miterlimit:6;-inkscape-stroke:none"
       d="m 73.8924,79.624076 c -0.121074,0.01164 -0.236723,0.08271 -0.296122,0.207741 l -0.544671,1.143082 c -0.112845,0.02053 -0.225134,0.04181 -0.336921,0.06563 l -0.935857,-0.851111 c -0.204629,-0.186476 -0.5343,-0.08757 -0.602033,0.180866 l -0.312129,1.231451 c -0.104881,0.04163 -0.20918,0.08356 -0.312632,0.128156 l -1.08831,-0.654738 c -0.237094,-0.142973 -0.540968,0.01857 -0.555017,0.295071 l -0.06562,1.272791 c -0.09353,0.06043 -0.186293,0.121963 -0.278024,0.185002 l -1.198906,-0.431498 c -0.26043,-0.09397 -0.526944,0.123986 -0.486781,0.397907 l 0.183462,1.260906 c -0.08006,0.07732 -0.158855,0.155517 -0.236696,0.235127 L 65.56628,84.101324 c -0.273738,-0.04136 -0.492787,0.223901 -0.399971,0.484724 l 0.424789,1.196824 c -0.06432,0.09248 -0.126418,0.186646 -0.188119,0.28112 l -1.26918,0.06046 c -0.276569,0.01283 -0.439076,0.315751 -0.297127,0.553455 l 0.646986,1.086755 c -0.04561,0.104796 -0.08811,0.21134 -0.130731,0.317809 l -1.229386,0.305408 c -0.268738,0.06654 -0.369544,0.396073 -0.183965,0.601512 l 0.847487,0.939996 c -0.02408,0.111432 -0.04577,0.2237 -0.06668,0.336412 l -1.146175,0.54002 c -0.250587,0.117689 -0.285142,0.459989 -0.06305,0.625284 l 1.015444,0.757577 c -0.0026,0.114614 -0.0034,0.229137 -0.0026,0.343132 l -1.017508,0.751891 c -0.222832,0.164316 -0.19013,0.507007 0.05993,0.625803 l 1.143609,0.544668 c 0.02064,0.112829 0.0418,0.225653 0.06562,0.337447 l -0.851111,0.935861 c -0.186479,0.204626 -0.08758,0.534304 0.180869,0.60203 l 1.23145,0.31161 c 0.04162,0.104881 0.08355,0.209706 0.128164,0.313158 l -0.654738,1.088306 c -0.142981,0.237077 0.01852,0.540432 0.295064,0.554487 l 1.272804,0.06615 c 0.06043,0.09354 0.121973,0.186288 0.184997,0.278021 l -0.431509,1.198896 c -0.09395,0.26041 0.123481,0.52694 0.397404,0.48679 l 1.261427,-0.18397 c 0.07731,0.0801 0.155523,0.15882 0.235109,0.23668 l -0.189124,1.26039 c -0.04138,0.27374 0.22389,0.49228 0.484717,0.39946 l 1.196842,-0.42427 c 0.09247,0.0643 0.186638,0.1264 0.28112,0.1881 l 0.06046,1.26918 c 0.0127,0.27655 0.315753,0.43906 0.553455,0.29714 l 1.086749,-0.64751 c 0.104802,0.0456 0.21135,0.0886 0.317818,0.13126 l 0.305409,1.22938 c 0.06654,0.26873 0.396054,0.36902 0.601503,0.18345 l 0.939985,-0.84697 c 0.111417,0.0241 0.223706,0.0453 0.336418,0.0661 l 0.539512,1.1467 c 0.117713,0.25059 0.460481,0.28513 0.625793,0.0631 l 0.757581,-1.01596 c 0.114617,0.002 0.228626,0.004 0.342609,0.002 l 0.752422,1.01751 c 0.164306,0.22282 0.506995,0.19012 0.625792,-0.0599 l 0.544672,-1.1436 c 0.112845,-0.0205 0.225663,-0.0413 0.337449,-0.0651 l 0.935858,0.85111 c 0.204629,0.18647 0.5343,0.0871 0.602033,-0.18138 l 0.3116,-1.23145 c 0.104881,-0.0416 0.209708,-0.0836 0.313161,-0.12816 l 1.08831,0.65474 c 0.237093,0.14297 0.540438,-0.0186 0.554487,-0.29507 l 0.06615,-1.2728 c 0.09353,-0.0604 0.185764,-0.12144 0.277495,-0.18448 l 1.199409,0.43098 c 0.26043,0.094 0.526971,-0.12347 0.486807,-0.39739 l -0.183965,-1.26091 c 0.08006,-0.0773 0.15883,-0.15603 0.23667,-0.23564 l 1.260396,0.18913 c 0.273738,0.0414 0.492257,-0.22389 0.399441,-0.48472 l -0.424259,-1.196825 c 0.06432,-0.09248 0.126418,-0.186646 0.188119,-0.28112 l 1.269153,-0.05994 c 0.276569,-0.01283 0.439103,-0.31627 0.297154,-0.553972 l -0.647515,-1.086754 c 0.04561,-0.104799 0.08863,-0.211342 0.13126,-0.31781 l 1.229386,-0.305409 c 0.268737,-0.06654 0.369014,-0.396065 0.183436,-0.601514 L 86.45434,94.840768 c 0.02408,-0.111435 0.04524,-0.223708 0.06615,-0.336412 l 1.146704,-0.539504 c 0.250587,-0.117692 0.284612,-0.460502 0.06252,-0.625801 L 86.71427,92.581475 c 0.0026,-0.114612 0.0034,-0.228618 0.0026,-0.342614 l 1.017509,-0.752412 c 0.222832,-0.164319 0.190103,-0.507005 -0.05996,-0.6258 L 86.530857,90.31598 c -0.02064,-0.112829 -0.0413,-0.225655 -0.06511,-0.337447 l 0.851112,-0.935344 c 0.186478,-0.204626 0.08758,-0.534821 -0.180869,-0.602546 l -1.231424,-0.311611 c -0.04172,-0.104883 -0.08356,-0.209707 -0.128164,-0.313157 l 0.654209,-1.088305 c 0.142981,-0.237077 -0.01799,-0.540435 -0.294534,-0.55449 l -1.272805,-0.06615 c -0.06043,-0.09354 -0.121973,-0.185769 -0.184997,-0.2775 l 0.431483,-1.199412 c 0.09395,-0.260411 -0.123984,-0.526947 -0.397907,-0.486791 l -1.260898,0.183967 c -0.07731,-0.08007 -0.156052,-0.158813 -0.235638,-0.236677 l 0.189124,-1.260388 c 0.04138,-0.273743 -0.223361,-0.492284 -0.484188,-0.39946 l -1.197345,0.424265 c -0.09247,-0.06433 -0.186637,-0.126397 -0.28112,-0.188103 l -0.05995,-1.268656 c -0.0127,-0.276553 -0.316283,-0.439581 -0.553985,-0.297656 l -1.086749,0.647504 c -0.104802,-0.04563 -0.21082,-0.08863 -0.317289,-0.131257 L 79.117902,80.387901 C 79.051362,80.119169 78.72235,80.01836 78.516901,80.203933 l -0.940012,0.846976 c -0.111416,-0.02408 -0.223678,-0.04527 -0.336391,-0.06614 l -0.540041,-1.146183 c -0.05884,-0.125294 -0.17354,-0.197104 -0.294534,-0.209291 -0.120968,-0.01217 -0.248073,0.0352 -0.330729,0.146246 l -0.757582,1.015441 c -0.114617,-0.0021 -0.229155,-0.0035 -0.343138,-0.0021 l -0.751893,-1.017508 c -0.08215,-0.111408 -0.209126,-0.158909 -0.3302,-0.147278 z m 1.207161,3.358968 c 0.318267,-1.09e-4 0.639551,0.01545 0.963242,0.04806 0.804281,0.081 1.574192,0.260601 2.299071,0.525034 -0.11774,0.120221 -0.01932,0.01868 -0.178779,0.181901 -0.556975,0.609396 -0.867172,1.40427 -0.870241,2.229836 7.9e-5,1.237359 0.677968,2.31458 1.68103,2.886646 l -0.55708,4.525306 a 3.3235169,3.3235169 0 0 0 -0.442331,0.08578 L 74.406062,89.52993 a 3.3235169,3.3235169 0 0 0 0.320913,-1.418516 3.3235169,3.3235169 0 0 0 -3.323325,-3.323827 3.3235169,3.3235169 0 0 0 -3.323829,3.323827 3.3235169,3.3235169 0 0 0 0.972027,2.318721 l -0.630952,5.124233 c -0.422275,0.147066 -0.815261,0.375806 -1.150832,0.682646 -0.769276,0.744511 -0.434181,0.42228 -0.496094,0.484209 -0.814361,-1.567683 -1.197504,-3.383362 -1.00666,-5.278232 0.48903,-4.855251 4.558162,-8.458296 9.332251,-8.459947 z m 5.536592,1.624189 a 1.3601922,1.3601922 0 0 1 1.360143,1.360126 1.3601922,1.3601922 0 0 1 -1.360143,1.36064 1.3601922,1.3601922 0 0 1 -1.360118,-1.36064 1.3601922,1.3601922 0 0 1 1.360118,-1.360126 z M 71.40365,86.75129 a 1.3601922,1.3601922 0 0 1 1.360117,1.360124 1.3601922,1.3601922 0 0 1 -1.360117,1.360122 1.3601922,1.3601922 0 0 1 -1.360118,-1.360122 1.3601922,1.3601922 0 0 1 1.360118,-1.360124 z m 11.989964,1.153935 c 0.866298,1.599699 1.277752,3.469186 1.081087,5.421891 -0.521626,5.178935 -5.117094,8.933504 -10.296022,8.411884 -0.863045,-0.0869 -1.684946,-0.28949 -2.455677,-0.58652 0.120385,-0.1229 0.06451,-0.0643 0.229446,-0.23306 0.556948,-0.6094 0.867172,-1.40428 0.870241,-2.229843 -7.9e-5,-1.212585 -0.651589,-2.270607 -1.621604,-2.850989 l 0.547237,-4.442621 a 3.3235169,3.3235169 0 0 0 0.502814,-0.08217 l 3.616855,3.966683 a 3.3235169,3.3235169 0 0 0 -0.304906,1.37201 3.3235169,3.3235169 0 0 0 3.323325,3.323828 3.3235169,3.3235169 0 0 0 3.323828,-3.323828 3.3235169,3.3235169 0 0 0 -1.064022,-2.411224 l 0.635106,-5.160923 c 0.397007,-0.14777 0.766207,-0.369173 1.084157,-0.659911 0.818753,-0.792388 0.487442,-0.473703 0.528135,-0.515211 z m -4.507204,7.387144 a 1.3601922,1.3601922 0 0 1 1.36062,1.360125 1.3601922,1.3601922 0 0 1 -1.36062,1.360639 1.3601922,1.3601922 0 0 1 -1.360143,-1.360639 1.3601922,1.3601922 0 0 1 1.360143,-1.360125 z m -9.387046,2.037086 a 1.3601922,1.3601922 0 0 1 1.360143,1.360122 1.3601922,1.3601922 0 0 1 -1.360143,1.360643 1.3601922,1.3601922 0 0 1 -1.360117,-1.360643 1.3601922,1.3601922 0 0 1 1.360117,-1.360122 z" />
  </g>
</svg>
