<?xml version="1.0" encoding="UTF-8" standalone="no"?>
<!-- Created with Inkscape (http://www.inkscape.org/) -->

<svg
   width="25.526058mm"
   height="25.525219mm"
   viewBox="0 0 25.526058 25.525219"
   version="1.1"
   id="svg103483"
   inkscape:version="1.1.2 (0a00cf5339, 2022-02-04)"
   sodipodi:docname="nemo-logo-white-nomargin.svg"
   xmlns:inkscape="http://www.inkscape.org/namespaces/inkscape"
   xmlns:sodipodi="http://sodipodi.sourceforge.net/DTD/sodipodi-0.dtd"
   xmlns="http://www.w3.org/2000/svg"
   xmlns:svg="http://www.w3.org/2000/svg">
  <sodipodi:namedview
     id="namedview103485"
     pagecolor="#969696"
     bordercolor="#666666"
     borderopacity="1.0"
     inkscape:pageshadow="2"
     inkscape:pageopacity="0"
     inkscape:pagecheckerboard="true"
     inkscape:document-units="mm"
     showgrid="false"
     fit-margin-top="0"
     fit-margin-left="0"
     fit-margin-right="0"
     fit-margin-bottom="0"
     inkscape:zoom="0.80087682"
     inkscape:cx="137.97378"
     inkscape:cy="237.86429"
     inkscape:window-width="1917"
     inkscape:window-height="1126"
     inkscape:window-x="0"
     inkscape:window-y="0"
     inkscape:window-maximized="1"
     inkscape:current-layer="layer1" />
  <defs
     id="defs103480" />
  <g
     inkscape:label="Layer 1"
     inkscape:groupmode="layer"
     id="layer1"
     transform="translate(-68.606875,-85.643566)">
    <path
       id="path87553"
       style="color:#000000;fill:#ffffff;fill-opacity:1;stroke-width:0.264583;stroke-miterlimit:6;-inkscape-stroke:none"
       d="m 80.141851,85.645258 c -0.121074,0.01164 -0.236723,0.08271 -0.296122,0.20774 l -0.544671,1.143082 c -0.112845,0.02053 -0.225134,0.04181 -0.33692,0.06563 L 78.02828,86.210598 c -0.204629,-0.186476 -0.5343,-0.08757 -0.602033,0.180867 l -0.312129,1.23145 c -0.104881,0.04163 -0.20918,0.08356 -0.312632,0.128156 l -1.08831,-0.654738 c -0.237093,-0.142973 -0.540967,0.01857 -0.555017,0.295071 l -0.06562,1.272792 c -0.09353,0.06042 -0.186294,0.121962 -0.278025,0.185002 l -1.198906,-0.431499 c -0.260429,-0.09397 -0.526944,0.123987 -0.48678,0.397907 l 0.183462,1.260906 c -0.08006,0.07732 -0.158856,0.155517 -0.236697,0.235128 l -1.259866,-0.189135 c -0.273738,-0.04136 -0.492787,0.223901 -0.399971,0.484725 l 0.424789,1.196824 c -0.06432,0.09248 -0.126418,0.186645 -0.188119,0.28112 l -1.26918,0.06046 c -0.276569,0.01283 -0.439076,0.315751 -0.297127,0.553455 l 0.646986,1.086755 c -0.04561,0.104797 -0.08811,0.211343 -0.130731,0.317811 l -1.229386,0.305409 c -0.268737,0.06654 -0.369544,0.396073 -0.183965,0.601511 l 0.847487,0.939996 c -0.02408,0.111432 -0.04577,0.2237 -0.06668,0.336412 l -1.146175,0.54002 c -0.250587,0.11769 -0.285142,0.459989 -0.06305,0.625285 l 1.015444,0.757576 c -0.0026,0.114615 -0.0034,0.229137 -0.0026,0.343133 l -1.017508,0.75189 c -0.222832,0.164317 -0.190129,0.507008 0.05993,0.625803 l 1.143609,0.54467 c 0.02064,0.11283 0.0418,0.22565 0.06562,0.33745 l -0.851111,0.93586 c -0.186479,0.20462 -0.08758,0.5343 0.180869,0.60203 l 1.23145,0.31161 c 0.04162,0.10488 0.08356,0.2097 0.128164,0.31316 l -0.654738,1.0883 c -0.14298,0.23708 0.01852,0.54043 0.295064,0.55449 l 1.272804,0.0661 c 0.06043,0.0935 0.121973,0.18628 0.184997,0.27802 l -0.431509,1.19889 c -0.09395,0.26041 0.123481,0.52695 0.397404,0.48679 l 1.261428,-0.18397 c 0.07731,0.0801 0.155522,0.15882 0.235108,0.23668 l -0.189124,1.26039 c -0.04138,0.27374 0.223891,0.49228 0.484717,0.39946 l 1.196843,-0.42427 c 0.09247,0.0643 0.186637,0.1264 0.281119,0.1881 l 0.06046,1.26918 c 0.0127,0.27655 0.315753,0.43906 0.553455,0.29714 l 1.08675,-0.64751 c 0.104801,0.0456 0.211349,0.0886 0.317817,0.13126 l 0.305409,1.22938 c 0.06654,0.26874 0.396054,0.36903 0.601503,0.18345 l 0.939986,-0.84697 c 0.111416,0.0241 0.223705,0.0453 0.336417,0.0661 l 0.539512,1.1467 c 0.117713,0.25059 0.460481,0.28513 0.625793,0.063 l 0.757581,-1.01596 c 0.114618,0.002 0.228627,0.004 0.342609,0.002 l 0.752422,1.01752 c 0.164306,0.22281 0.506995,0.19011 0.625793,-0.06 l 0.544671,-1.1436 c 0.112845,-0.0205 0.225663,-0.0413 0.337449,-0.0651 l 0.935858,0.85111 c 0.204629,0.18647 0.5343,0.0871 0.602033,-0.18138 l 0.3116,-1.23145 c 0.104881,-0.0416 0.209709,-0.0836 0.313161,-0.12816 l 1.08831,0.65474 c 0.237093,0.14297 0.540438,-0.0186 0.554488,-0.29507 l 0.06615,-1.2728 c 0.09353,-0.0604 0.185764,-0.12144 0.277495,-0.18448 l 1.19941,0.43098 c 0.260429,0.094 0.52697,-0.12347 0.486806,-0.39739 l -0.183964,-1.2609 c 0.08006,-0.0773 0.158829,-0.15603 0.236669,-0.23565 l 1.260396,0.18914 c 0.273738,0.0414 0.492257,-0.2239 0.399441,-0.48473 l -0.424259,-1.19682 c 0.06432,-0.0925 0.126418,-0.18665 0.188119,-0.28112 l 1.269153,-0.06 c 0.276569,-0.0128 0.439103,-0.31627 0.297154,-0.55397 l -0.647515,-1.08675 c 0.04561,-0.1048 0.08864,-0.21134 0.13126,-0.31781 l 1.229386,-0.30541 c 0.268737,-0.0665 0.369015,-0.39607 0.183436,-0.60152 l -0.846958,-0.93999 c 0.02408,-0.11143 0.04524,-0.22371 0.06615,-0.33641 l 1.146704,-0.539507 c 0.250587,-0.117692 0.284612,-0.460502 0.06252,-0.6258 l -1.015444,-0.757577 c 0.0026,-0.114612 0.0034,-0.228618 0.0026,-0.342614 l 1.017508,-0.752411 c 0.222832,-0.16432 0.190103,-0.507006 -0.05996,-0.625801 l -1.143608,-0.544668 c -0.02064,-0.112829 -0.0413,-0.225656 -0.06511,-0.337447 l 0.851111,-0.935345 c 0.186479,-0.204626 0.08758,-0.534821 -0.180869,-0.602546 l -1.231424,-0.31161 c -0.04172,-0.104884 -0.08356,-0.20971 -0.128164,-0.31316 l 0.654209,-1.088305 c 0.142981,-0.237077 -0.01799,-0.540435 -0.294534,-0.55449 l -1.272805,-0.06615 c -0.06043,-0.09354 -0.121973,-0.185769 -0.184996,-0.2775 l 0.431482,-1.199412 c 0.09395,-0.260411 -0.123984,-0.526947 -0.397907,-0.486791 L 89.7004,90.34838 c -0.07731,-0.08007 -0.156051,-0.158814 -0.235638,-0.236678 l 0.189124,-1.260388 c 0.04138,-0.273743 -0.223361,-0.492283 -0.484187,-0.39946 l -1.197346,0.424265 c -0.09247,-0.06433 -0.186637,-0.126397 -0.28112,-0.188103 L 87.631283,87.41936 C 87.618583,87.142807 87.315,86.979779 87.077298,87.121704 l -1.086749,0.647504 c -0.104802,-0.04564 -0.21082,-0.08863 -0.317289,-0.131257 l -0.305911,-1.228865 c -0.06654,-0.268732 -0.395552,-0.369541 -0.601001,-0.183968 l -0.940012,0.846977 c -0.111416,-0.02408 -0.223678,-0.04527 -0.336391,-0.06615 L 82.9499,85.859766 c -0.05884,-0.125294 -0.17354,-0.197104 -0.294534,-0.209291 -0.120967,-0.01217 -0.248073,0.0352 -0.330729,0.146246 l -0.757582,1.015442 c -0.114617,-0.0021 -0.229155,-0.0035 -0.343138,-0.0021 l -0.751893,-1.017508 c -0.08215,-0.111408 -0.209126,-0.158909 -0.3302,-0.147278 z m 1.207161,3.358967 c 0.318268,-1.08e-4 0.639551,0.01545 0.963242,0.04806 0.804281,0.08101 1.574192,0.260601 2.299071,0.525034 -0.11774,0.120221 -0.01931,0.01868 -0.178779,0.181901 -0.556975,0.609396 -0.867172,1.404271 -0.870241,2.229837 7.9e-5,1.237358 0.677968,2.314581 1.68103,2.886647 l -0.55708,4.525306 a 3.3235169,3.3235169 0 0 0 -0.442331,0.08578 l -3.588411,-3.935677 a 3.3235169,3.3235169 0 0 0 0.320913,-1.418516 3.3235169,3.3235169 0 0 0 -3.323325,-3.323829 3.3235169,3.3235169 0 0 0 -3.323828,3.323829 3.3235169,3.3235169 0 0 0 0.972026,2.318721 l -0.630952,5.124232 c -0.422275,0.14707 -0.815261,0.37581 -1.150832,0.68265 -0.769276,0.74451 -0.434181,0.42228 -0.496093,0.48421 -0.814361,-1.56769 -1.197505,-3.383366 -1.006661,-5.278235 0.48903,-4.855253 4.558163,-8.458299 9.332251,-8.45995 z m 5.536592,1.62419 a 1.3601922,1.3601922 0 0 1 1.360143,1.360125 1.3601922,1.3601922 0 0 1 -1.360143,1.360641 1.3601922,1.3601922 0 0 1 -1.360117,-1.360641 1.3601922,1.3601922 0 0 1 1.360117,-1.360125 z m -9.232503,2.144056 a 1.3601922,1.3601922 0 0 1 1.360117,1.360126 1.3601922,1.3601922 0 0 1 -1.360117,1.360122 1.3601922,1.3601922 0 0 1 -1.360117,-1.360122 1.3601922,1.3601922 0 0 1 1.360117,-1.360126 z m 11.989964,1.153935 c 0.866298,1.599701 1.277752,3.469189 1.081087,5.421893 -0.521626,5.178931 -5.117094,8.933501 -10.296022,8.411881 -0.863044,-0.0869 -1.684946,-0.28949 -2.455677,-0.58652 0.120385,-0.1229 0.0645,-0.0643 0.229446,-0.23306 0.556948,-0.6094 0.867172,-1.40428 0.870241,-2.22984 -7.9e-5,-1.21259 -0.651589,-2.27061 -1.621604,-2.85099 l 0.547237,-4.44262 a 3.3235169,3.3235169 0 0 0 0.502815,-0.08217 l 3.616854,3.96669 a 3.3235169,3.3235169 0 0 0 -0.304906,1.37201 3.3235169,3.3235169 0 0 0 3.323325,3.32383 3.3235169,3.3235169 0 0 0 3.323828,-3.32383 3.3235169,3.3235169 0 0 0 -1.064022,-2.41123 l 0.635106,-5.160924 c 0.397008,-0.147769 0.766207,-0.369173 1.084157,-0.65991 0.818753,-0.792391 0.487442,-0.473706 0.528135,-0.515214 z m -4.507204,7.387144 a 1.3601922,1.3601922 0 0 1 1.36062,1.36013 1.3601922,1.3601922 0 0 1 -1.36062,1.36064 1.3601922,1.3601922 0 0 1 -1.360143,-1.36064 1.3601922,1.3601922 0 0 1 1.360143,-1.36013 z m -9.387046,2.03709 a 1.3601922,1.3601922 0 0 1 1.360144,1.36012 1.3601922,1.3601922 0 0 1 -1.360144,1.36064 1.3601922,1.3601922 0 0 1 -1.360117,-1.36064 1.3601922,1.3601922 0 0 1 1.360117,-1.36012 z" />
  </g>
</svg>
