<?xml version="1.0" encoding="UTF-8" standalone="no"?>
<!-- Created with Inkscape (http://www.inkscape.org/) -->

<svg
   width="25.526058mm"
   height="25.525229mm"
   viewBox="0 0 25.526058 25.525229"
   version="1.1"
   id="svg103483"
   inkscape:version="1.1.2 (0a00cf5339, 2022-02-04)"
   sodipodi:docname="nemo-logo-rusty-bright-nomargin.svg"
   xmlns:inkscape="http://www.inkscape.org/namespaces/inkscape"
   xmlns:sodipodi="http://sodipodi.sourceforge.net/DTD/sodipodi-0.dtd"
   xmlns:xlink="http://www.w3.org/1999/xlink"
   xmlns="http://www.w3.org/2000/svg"
   xmlns:svg="http://www.w3.org/2000/svg">
  <sodipodi:namedview
     id="namedview103485"
     pagecolor="#626262"
     bordercolor="#666666"
     borderopacity="1.0"
     inkscape:pageshadow="2"
     inkscape:pageopacity="0"
     inkscape:pagecheckerboard="true"
     inkscape:document-units="mm"
     showgrid="false"
     fit-margin-top="0"
     fit-margin-left="0"
     fit-margin-right="0"
     fit-margin-bottom="0"
     inkscape:zoom="1.6631321"
     inkscape:cx="-30.965671"
     inkscape:cy="-90.491912"
     inkscape:window-width="1917"
     inkscape:window-height="1126"
     inkscape:window-x="0"
     inkscape:window-y="0"
     inkscape:window-maximized="1"
     inkscape:current-layer="layer1" />
  <defs
     id="defs103480">
    <linearGradient
       inkscape:collect="always"
       xlink:href="#linearGradient267755"
       id="linearGradient311397"
       gradientUnits="userSpaceOnUse"
       gradientTransform="matrix(0.26458333,0,0,0.26458333,-404.85085,32.121708)"
       x1="1806.8732"
       y1="329.75214"
       x2="1894.3672"
       y2="235.94693" />
    <linearGradient
       inkscape:collect="always"
       id="linearGradient267755">
      <stop
         style="stop-color:#18434e;stop-opacity:1"
         offset="0"
         id="stop267747" />
      <stop
         style="stop-color:#d2e3e7;stop-opacity:1"
         offset="0.61675489"
         id="stop267751" />
      <stop
         style="stop-color:#9c8b30;stop-opacity:1"
         offset="1"
         id="stop267753" />
    </linearGradient>
  </defs>
  <g
     inkscape:label="Layer 1"
     inkscape:groupmode="layer"
     id="layer1"
     transform="translate(-72.133786,-92.579943)">
    <path
       id="path311395"
       style="color:#000000;fill:url(#linearGradient311397);fill-opacity:1;stroke-width:0.264583;stroke-miterlimit:6;-inkscape-stroke:none"
       d="m 83.668751,92.581635 c -0.121074,0.01164 -0.236723,0.08271 -0.296122,0.207741 l -0.544671,1.143082 c -0.112845,0.02053 -0.225134,0.04181 -0.336921,0.06563 L 81.55518,93.146976 c -0.204629,-0.186476 -0.5343,-0.08757 -0.602033,0.180866 l -0.312129,1.231451 c -0.104881,0.04163 -0.20918,0.08356 -0.312632,0.128156 l -1.08831,-0.654738 c -0.237094,-0.142973 -0.540967,0.01857 -0.555017,0.295071 l -0.06562,1.272791 c -0.09353,0.06043 -0.186293,0.121963 -0.278024,0.185002 l -1.198906,-0.431498 c -0.26043,-0.09397 -0.526944,0.123986 -0.486781,0.397907 l 0.183463,1.260906 c -0.08006,0.07732 -0.158856,0.155517 -0.236697,0.235127 l -1.259866,-0.189134 c -0.273738,-0.04136 -0.492787,0.223901 -0.399971,0.484724 l 0.424789,1.196824 c -0.06432,0.09248 -0.126418,0.186646 -0.188119,0.28112 l -1.26918,0.06046 c -0.276569,0.01283 -0.439076,0.315751 -0.297127,0.553455 l 0.646986,1.086754 c -0.04561,0.1048 -0.08811,0.21134 -0.130731,0.31781 l -1.229386,0.30541 c -0.268738,0.0665 -0.369544,0.39607 -0.183965,0.60151 l 0.847487,0.94 c -0.02408,0.11143 -0.04577,0.2237 -0.06667,0.33641 l -1.146175,0.54002 c -0.250587,0.11769 -0.285142,0.45999 -0.06305,0.62529 l 1.015444,0.75757 c -0.0026,0.11462 -0.0034,0.22914 -0.0026,0.34313 l -1.017508,0.75189 c -0.222832,0.16432 -0.19013,0.50701 0.05993,0.62581 l 1.143609,0.54467 c 0.02064,0.11283 0.0418,0.22565 0.06562,0.33744 l -0.851111,0.93586 c -0.186479,0.20463 -0.08758,0.53431 0.180869,0.60203 l 1.23145,0.31161 c 0.04162,0.10489 0.08356,0.20971 0.128164,0.31316 l -0.654738,1.08831 c -0.142981,0.23707 0.01852,0.54043 0.295064,0.55449 l 1.272804,0.0661 c 0.06043,0.0935 0.121973,0.18629 0.184997,0.27802 l -0.431509,1.1989 c -0.09395,0.26041 0.123481,0.52694 0.397404,0.48679 l 1.261428,-0.18397 c 0.07731,0.0801 0.155522,0.15882 0.235108,0.23668 l -0.189124,1.26038 c -0.04138,0.27375 0.223891,0.49229 0.484717,0.39946 l 1.196842,-0.42426 c 0.09247,0.0643 0.186638,0.1264 0.28112,0.1881 l 0.06046,1.26917 c 0.0127,0.27656 0.315753,0.43907 0.553455,0.29714 l 1.08675,-0.6475 c 0.104801,0.0456 0.211349,0.0886 0.317817,0.13126 l 0.305409,1.22938 c 0.06654,0.26873 0.396054,0.36902 0.601503,0.18345 l 0.939986,-0.84698 c 0.111416,0.0241 0.223705,0.0453 0.336417,0.0661 l 0.539512,1.1467 c 0.117713,0.25059 0.460481,0.28513 0.625793,0.063 l 0.757581,-1.01596 c 0.114618,0.002 0.228626,0.004 0.342609,0.002 l 0.752422,1.01751 c 0.164306,0.22282 0.506995,0.19012 0.625793,-0.0599 l 0.544671,-1.1436 c 0.112845,-0.0205 0.225663,-0.0413 0.337449,-0.0651 l 0.935858,0.85111 c 0.204629,0.18647 0.5343,0.0871 0.602033,-0.18139 l 0.3116,-1.23145 c 0.104881,-0.0416 0.209708,-0.0836 0.313161,-0.12815 l 1.08831,0.65474 c 0.237093,0.14297 0.540438,-0.0186 0.554487,-0.29508 l 0.06615,-1.27279 c 0.09353,-0.0604 0.185764,-0.12144 0.277495,-0.18448 l 1.199409,0.43098 c 0.26043,0.094 0.526971,-0.12347 0.486807,-0.39739 l -0.183964,-1.26091 c 0.08006,-0.0773 0.158829,-0.15603 0.236669,-0.23564 l 1.260396,0.18913 c 0.273738,0.0414 0.492257,-0.22389 0.399441,-0.48472 l -0.424259,-1.19683 c 0.06432,-0.0925 0.126418,-0.18664 0.188119,-0.28112 l 1.269153,-0.0599 c 0.276569,-0.0128 0.439103,-0.31627 0.297154,-0.55397 l -0.647515,-1.08676 c 0.04561,-0.1048 0.08863,-0.21134 0.13126,-0.31781 l 1.229386,-0.30541 c 0.268737,-0.0665 0.369014,-0.39606 0.183436,-0.60151 l -0.846958,-0.93999 c 0.02408,-0.11144 0.04524,-0.22371 0.06615,-0.33642 l 1.146704,-0.5395 c 0.250587,-0.11769 0.284612,-0.4605 0.06252,-0.6258 l -1.015444,-0.75758 c 0.0026,-0.11461 0.0034,-0.22861 0.0026,-0.34261 l 1.017509,-0.75241 c 0.222832,-0.16432 0.190103,-0.50701 -0.05996,-0.6258 l -1.143609,-0.54467 c -0.02064,-0.11283 -0.0413,-0.22566 -0.06511,-0.33745 l 0.851111,-0.93534 c 0.186479,-0.20463 0.08758,-0.53482 -0.180869,-0.60255 l -1.231424,-0.31161 c -0.04172,-0.10488 -0.08356,-0.20971 -0.128164,-0.31316 l 0.654209,-1.088304 c 0.142981,-0.237077 -0.01799,-0.540435 -0.294534,-0.55449 l -1.272805,-0.06615 c -0.06043,-0.09354 -0.121973,-0.185769 -0.184997,-0.2775 l 0.431483,-1.199412 c 0.09394,-0.260244 -0.124,-0.52678 -0.397923,-0.486624 L 93.2273,97.284757 c -0.07731,-0.08007 -0.156051,-0.158813 -0.235638,-0.236677 l 0.189124,-1.260388 c 0.04138,-0.273743 -0.223361,-0.492284 -0.484187,-0.39946 l -1.197346,0.424265 c -0.09247,-0.06433 -0.186637,-0.126397 -0.28112,-0.188103 l -0.05995,-1.268656 c -0.0127,-0.276553 -0.316283,-0.439581 -0.553985,-0.297656 l -1.086749,0.647504 c -0.104802,-0.04563 -0.21082,-0.08863 -0.317289,-0.131257 l -0.305911,-1.228865 c -0.06654,-0.268732 -0.395552,-0.369541 -0.601001,-0.183968 l -0.940012,0.846976 c -0.111416,-0.02408 -0.223678,-0.04527 -0.336391,-0.06614 L 86.4768,92.796144 c -0.05884,-0.125294 -0.17354,-0.197104 -0.294534,-0.209291 -0.120968,-0.01217 -0.248073,0.0352 -0.330729,0.146246 l -0.757582,1.015441 c -0.114617,-0.0021 -0.229155,-0.0035 -0.343138,-0.0021 l -0.751893,-1.017508 c -0.08215,-0.111408 -0.209126,-0.158909 -0.3302,-0.147278 z m 1.207161,3.358968 c 0.318267,-1.09e-4 0.639551,0.01545 0.963242,0.04806 0.804281,0.081 1.574192,0.260601 2.299071,0.525034 -0.11774,0.120221 -0.01932,0.01868 -0.178779,0.181901 -0.556975,0.609396 -0.867172,1.40427 -0.870241,2.229836 7.9e-5,1.237356 0.677968,2.314576 1.68103,2.886646 l -0.55708,4.52531 a 3.3235169,3.3235169 0 0 0 -0.442331,0.0858 l -3.588411,-3.93568 a 3.3235169,3.3235169 0 0 0 0.320913,-1.41852 3.3235169,3.3235169 0 0 0 -3.323325,-3.323823 3.3235169,3.3235169 0 0 0 -3.323829,3.323823 3.3235169,3.3235169 0 0 0 0.972027,2.31872 l -0.630952,5.12424 c -0.422275,0.14706 -0.815261,0.3758 -1.150832,0.68264 -0.769276,0.74451 -0.434181,0.42228 -0.496094,0.48421 -0.814361,-1.56768 -1.197504,-3.38336 -1.00666,-5.27823 0.48903,-4.85525 4.558162,-8.458295 9.332251,-8.459946 z m 5.536592,1.624189 a 1.3601922,1.3601922 0 0 1 1.360143,1.360126 1.3601922,1.3601922 0 0 1 -1.360143,1.360642 1.3601922,1.3601922 0 0 1 -1.360117,-1.360642 1.3601922,1.3601922 0 0 1 1.360117,-1.360126 z m -9.232503,2.144057 a 1.3601922,1.3601922 0 0 1 1.360117,1.360121 1.3601922,1.3601922 0 0 1 -1.360117,1.36013 1.3601922,1.3601922 0 0 1 -1.360118,-1.36013 1.3601922,1.3601922 0 0 1 1.360118,-1.360121 z m 11.989964,1.153931 c 0.866298,1.5997 1.277752,3.46919 1.081087,5.42189 -0.521626,5.17894 -5.117094,8.93351 -10.296022,8.41189 -0.863044,-0.0869 -1.684946,-0.28949 -2.455677,-0.58652 0.120385,-0.1229 0.0645,-0.0643 0.229446,-0.23306 0.556948,-0.6094 0.867172,-1.40428 0.870241,-2.22984 -7.9e-5,-1.21259 -0.651589,-2.27061 -1.621604,-2.85099 l 0.547237,-4.44262 a 3.3235169,3.3235169 0 0 0 0.502814,-0.0822 l 3.616855,3.96668 a 3.3235169,3.3235169 0 0 0 -0.304906,1.37201 3.3235169,3.3235169 0 0 0 3.323325,3.32383 3.3235169,3.3235169 0 0 0 3.323828,-3.32383 3.3235169,3.3235169 0 0 0 -1.064022,-2.41122 l 0.635106,-5.16092 c 0.397007,-0.14777 0.766207,-0.36918 1.084157,-0.65991 0.818753,-0.79239 0.487442,-0.47371 0.528135,-0.51522 z m -4.507204,7.38715 a 1.3601922,1.3601922 0 0 1 1.36062,1.36012 1.3601922,1.3601922 0 0 1 -1.36062,1.36064 1.3601922,1.3601922 0 0 1 -1.360143,-1.36064 1.3601922,1.3601922 0 0 1 1.360143,-1.36012 z m -9.387046,2.03708 a 1.3601922,1.3601922 0 0 1 1.360143,1.36013 1.3601922,1.3601922 0 0 1 -1.360143,1.36064 1.3601922,1.3601922 0 0 1 -1.360117,-1.36064 1.3601922,1.3601922 0 0 1 1.360117,-1.36013 z" />
  </g>
</svg>
